<svg id="Capa_1" enable-background="new 0 0 512 512" height="512" viewBox="0 0 512 512" width="512" xmlns="http://www.w3.org/2000/svg"><g><g><g><path d="m400.523 491.026h-337.179c-30.842 0-55.844-25.002-55.844-55.844v-293.281c0-30.842 25.002-55.844 55.844-55.844h337.179c30.842 0 55.844 25.002 55.844 55.844v293.282c-.001 30.841-25.003 55.843-55.844 55.843z" fill="#ffe07d"/><path d="m84.3 491.019h-20.95c-30.85 0-55.85-25-55.85-55.84v-293.278c0-30.84 25-55.85 55.85-55.85h20.95c-30.85 0-55.85 25.01-55.85 55.85v293.279c0 30.839 25 55.839 55.85 55.839z" fill="#ffd064"/><path d="m426.366 207.485v227.7c0 14.271-11.569 25.84-25.84 25.84h-337.186c-14.271 0-25.84-11.569-25.84-25.84v-227.7c0-17.476 14.167-31.644 31.644-31.644h325.579c17.476 0 31.643 14.168 31.643 31.644z" fill="#f1f4f6"/><path d="m95.92 461.034h-32.58c-14.27 0-25.84-11.57-25.84-25.84v-227.709c0-17.47 14.17-31.64 31.64-31.64h32.58c-17.48 0-31.64 14.17-31.64 31.64v227.709c0 14.27 11.57 25.84 25.84 25.84z" fill="#dddaec"/><g fill="#dd5790"><circle cx="55.79" cy="131.948" r="18.29"/><circle cx="113.937" cy="131.948" r="18.29"/><circle cx="172.084" cy="131.948" r="18.29"/></g></g><g><path d="m474.124 20.97h-214.888c-16.776 0-30.376 13.6-30.376 30.376v168.457c0 16.776 13.6 30.376 30.376 30.376h30.29v31.783c0 11.448 12.75 18.284 22.284 11.949l65.821-43.732h96.493c16.776 0 30.376-13.6 30.376-30.376v-168.457c0-16.776-13.6-30.376-30.376-30.376z" fill="#9dc6fb"/><path d="m292.119 250.172h-32.889c-16.771 0-30.369-13.599-30.369-30.369v-168.457c0-16.779 13.599-30.377 30.369-30.377h32.889c-16.779 0-30.377 13.599-30.377 30.377v168.457c0 16.771 13.598 30.369 30.377 30.369z" fill="#80b4fb"/><g><path d="m403.508 192.309h-9.142v-44.697-15.517c0-7.868-6.378-14.246-14.246-14.246h-50.269c-8.219 0-14.881 6.662-14.881 14.881 0 8.219 6.662 14.881 14.881 14.881h12.876v44.697h-12.876c-8.219 0-14.881 6.662-14.881 14.881 0 8.219 6.662 14.881 14.881 14.881h73.657c8.219 0 14.881-6.662 14.881-14.881.001-8.218-6.662-14.88-14.881-14.88z" fill="#f9f6f9"/><path d="m359.681 147.61v44.69h-12.88c-8.22 0-14.88 6.67-14.88 14.89 0 4.1 1.67 7.82 4.36 10.52 2.69 2.69 6.41 4.36 10.52 4.36h-16.95c-4.11 0-7.83-1.67-10.52-4.36-2.7-2.7-4.36-6.42-4.36-10.52 0-8.22 6.66-14.89 14.88-14.89h12.88v-44.69h-12.88c-4.11 0-7.83-1.66-10.52-4.36-2.7-2.69-4.36-6.41-4.36-10.52 0-8.22 6.66-14.88 14.88-14.88h16.95c-8.22 0-14.88 6.66-14.88 14.88 0 4.11 1.67 7.83 4.36 10.52 2.69 2.7 6.41 4.36 10.52 4.36z" fill="#dddaec"/><circle cx="368.547" cy="69.214" fill="#f9f6f9" r="25.819"/><path d="m377.398 93.474c-2.76 1.01-5.74 1.56-8.85 1.56-14.26 0-25.82-11.56-25.82-25.82s11.56-25.82 25.82-25.82c3.11 0 6.09.55 8.85 1.56-9.9 3.61-16.97 13.11-16.97 24.26s7.07 20.65 16.97 24.26z" fill="#dddaec"/></g></g></g><g><path d="m55.79 157.737c14.22 0 25.789-11.569 25.789-25.79s-11.569-25.79-25.789-25.79c-14.221 0-25.79 11.569-25.79 25.79s11.569 25.79 25.79 25.79zm0-36.579c5.949 0 10.789 4.84 10.789 10.79s-4.84 10.79-10.789 10.79-10.79-4.841-10.79-10.79 4.841-10.79 10.79-10.79z"/><path d="m113.937 157.737c14.221 0 25.79-11.569 25.79-25.79s-11.569-25.79-25.79-25.79-25.79 11.569-25.79 25.79 11.569 25.79 25.79 25.79zm0-36.579c5.949 0 10.79 4.84 10.79 10.79s-4.841 10.79-10.79 10.79-10.79-4.84-10.79-10.79 4.84-10.79 10.79-10.79z"/><path d="m172.084 157.737c14.22 0 25.789-11.569 25.789-25.79s-11.569-25.79-25.789-25.79c-14.221 0-25.79 11.569-25.79 25.79s11.569 25.79 25.79 25.79zm0-36.579c5.949 0 10.789 4.84 10.789 10.79s-4.84 10.79-10.789 10.79-10.79-4.84-10.79-10.79 4.841-10.79 10.79-10.79z"/><path d="m504.5 68.71c4.143 0 7.5-3.358 7.5-7.5v-9.86c0-20.887-16.993-37.88-37.88-37.88h-214.88c-20.887 0-37.88 16.993-37.88 37.88v27.21h-158.02c-34.926 0-63.34 28.415-63.34 63.341v293.28c0 34.931 28.414 63.35 63.34 63.35h337.19c34.926 0 63.34-28.419 63.34-63.35v-177.5h10.25c20.887 0 37.88-16.993 37.88-37.88v-128.591c0-4.142-3.357-7.5-7.5-7.5s-7.5 3.358-7.5 7.5v128.59c0 12.616-10.264 22.88-22.88 22.88h-96.49c-1.477 0-2.921.436-4.15 1.253l-65.824 43.733c-3.074 2.044-5.927.915-7.011.333-1.087-.582-3.614-2.336-3.614-6.039v-31.78c0-4.142-3.357-7.5-7.5-7.5h-30.29c-12.616 0-22.88-10.264-22.88-22.88v-168.45c0-12.616 10.264-22.88 22.88-22.88h214.88c12.616 0 22.88 10.264 22.88 22.88v9.86c-.001 4.142 3.356 7.5 7.499 7.5zm-245.26 188.97h22.79v24.28c0 8.07 4.418 15.45 11.53 19.261 3.237 1.734 6.781 2.594 10.315 2.594 4.224 0 8.432-1.228 12.084-3.658l63.935-42.477h38.976v177.51c0 10.113-8.228 18.34-18.34 18.34h-276.12c-4.143 0-7.5 3.358-7.5 7.5s3.357 7.5 7.5 7.5h276.12c18.384 0 33.34-14.956 33.34-33.34v-177.51h15v177.5c0 26.66-21.686 48.35-48.34 48.35h-337.19c-26.654 0-48.34-21.69-48.34-48.35v-293.28c0-26.655 21.686-48.34 48.34-48.34h158.02v74.779h-152.22c-21.582 0-39.14 17.558-39.14 39.14v227.71c0 18.384 14.956 33.34 33.34 33.34h31.07c4.143 0 7.5-3.358 7.5-7.5s-3.357-7.5-7.5-7.5h-31.07c-10.112 0-18.34-8.227-18.34-18.34v-227.709c0-13.311 10.829-24.14 24.14-24.14h152.22v36.46c0 20.887 16.994 37.88 37.88 37.88z"/><path d="m329.852 184.809c-12.341 0-22.381 10.04-22.381 22.381s10.04 22.381 22.381 22.381h73.657c12.341 0 22.381-10.04 22.381-22.381s-10.04-22.381-22.381-22.381h-1.642v-52.713c0-11.99-9.755-21.746-21.746-21.746h-50.27c-12.341 0-22.381 10.04-22.381 22.381s10.04 22.381 22.381 22.381h5.377v29.697zm12.877-44.697h-12.877c-4.069 0-7.381-3.311-7.381-7.381s3.312-7.381 7.381-7.381h50.27c3.72 0 6.746 3.026 6.746 6.746v60.213c0 4.142 3.357 7.5 7.5 7.5h9.142c4.069 0 7.381 3.311 7.381 7.381s-3.312 7.381-7.381 7.381h-73.657c-4.069 0-7.381-3.311-7.381-7.381s3.312-7.381 7.381-7.381h12.877c4.143 0 7.5-3.358 7.5-7.5v-44.697c-.001-4.142-3.359-7.5-7.501-7.5z"/><path d="m401.867 69.214c0-18.372-14.947-33.319-33.319-33.319s-33.319 14.947-33.319 33.319 14.947 33.319 33.319 33.319 33.319-14.946 33.319-33.319zm-51.638 0c0-10.101 8.218-18.319 18.319-18.319s18.319 8.218 18.319 18.319-8.218 18.319-18.319 18.319-18.319-8.218-18.319-18.319z"/><path d="m121.909 296.984c0 4.142 3.357 7.5 7.5 7.5h115.682c4.143 0 7.5-3.358 7.5-7.5s-3.357-7.5-7.5-7.5h-115.682c-4.142 0-7.5 3.358-7.5 7.5z"/><path d="m245.091 328.784h-150.682c-4.143 0-7.5 3.358-7.5 7.5s3.357 7.5 7.5 7.5h150.682c4.143 0 7.5-3.358 7.5-7.5s-3.358-7.5-7.5-7.5z"/><path d="m245.091 368.084h-150.682c-4.143 0-7.5 3.358-7.5 7.5s3.357 7.5 7.5 7.5h150.682c4.143 0 7.5-3.358 7.5-7.5s-3.358-7.5-7.5-7.5z"/><path d="m195.091 407.383h-100.682c-4.143 0-7.5 3.358-7.5 7.5s3.357 7.5 7.5 7.5h100.682c4.143 0 7.5-3.358 7.5-7.5s-3.358-7.5-7.5-7.5z"/></g></g></svg>